FFmpeg version SVN-r25716, Copyright (c) 2000-2010 the FFmpeg developers  built on Nov 10 2010 12:23:18 with gcc 4.1.2 20080704 (Red Hat 4.1.2-48)  configuration: --enable-libmp3lame --enable-shared --disable-mmx --arch=x86_64  libavutil     50.33. 0 / 50.33. 0  libavcore      0.12. 1 /  0.12. 1  libavcodec    52.94. 4 / 52.94. 4  libavformat   52.84. 0 / 52.84. 0  libavdevice   52. 2. 2 / 52. 2. 2  libavfilter    1.59. 0 /  1.59. 0  libswscale     0.12. 0 /  0.12. 0Seems stream 0 codec frame rate differs from container frame rate: 600.00 (600/1) -> 6.00 (6/1)Input #0, mov,mp4,m4a,3gp,3g2,mj2, from '/RAID10/data/converted_video_files/28777.mov':  Metadata:    major_brand     : qt      minor_version   : 537199360    compatible_brands: qt    Duration: 00:00:16.50, start: 0.000000, bitrate: 1203 kb/s    Stream #0.0(eng): Video: mjpeg, gray, 450x288 [PAR 1:1 DAR 25:16], 1202 kb/s, 6 fps, 6 tbr, 600 tbn, 600 tbc[buffer @ 0x16f12fe0] w:450 h:288 pixfmt:gray[ffsink @ 0x16f18a30] auto-inserting filter 'auto-inserted scaler 0' between the filter 'src' and the filter 'out'[scale @ 0x16f22e00] w:450 h:288 fmt:gray -> w:450 h:288 fmt:yuv420p flags:0x4Output #0, flv, to '/RAID10/data/converted_video_files/28777.flv':  Metadata:    encoder         : Lavf52.84.0    Stream #0.0(eng): Video: flv, yuv420p, 450x288 [PAR 1:1 DAR 25:16], q=2-31, 600 kb/s, 1k tbn, 24 tbcStream mapping:  Stream #0.0 -> #0.0Press [q] to stop encodingframe=   79 fps=  0 q=6.6 size=     592kB time=13.04 bitrate= 372.0kbits/s    frame=   99 fps=  0 q=8.5 Lsize=     743kB time=16.38 bitrate= 371.6kbits/s    video:741kB audio:0kB global headers:0kB muxing overhead 0.236389%